<?xml version="1.0" encoding="UTF-8" standalone="no"?>
<!DOCTYPE svg PUBLIC "-//W3C//DTD SVG 1.1//EN" "http://www.w3.org/Graphics/SVG/1.1/DTD/svg11.dtd">
<svg width="100%" height="100%" viewBox="0 0 43 32" version="1.1" xmlns="http://www.w3.org/2000/svg" xmlns:xlink="http://www.w3.org/1999/xlink" xml:space="preserve" xmlns:serif="http://www.serif.com/" style="fill-rule:evenodd;clip-rule:evenodd;stroke-linejoin:round;stroke-miterlimit:2;">
    <g transform="matrix(1,0,0,1,-131.738,-99.4056)">
        <g transform="matrix(1,0,0,1,0,-34.7341)">
            <g transform="matrix(1,0,0,1,65.6636,74.1009)">
                <path d="M83.081,91.759L83.081,66.219L79.301,66.219C78.155,66.219 76.509,66.367 75.724,66.759C74.939,67.151 74.208,67.651 73.805,68.369C73.403,69.087 73.133,69.991 73.133,70.972C73.133,71.943 73.403,72.751 73.805,73.479C74.208,74.207 75.052,75.003 75.856,75.353C76.699,75.72 78.145,75.868 79.301,75.868L79.301,81.909C76.406,81.909 73.354,81.459 71.588,80.561C69.822,79.663 68.462,78.395 67.507,76.759C66.552,75.122 66.074,73.209 66.074,71.02C66.074,68.841 66.544,66.929 67.484,65.282C68.423,63.635 69.758,62.349 71.487,61.425C73.217,60.501 75.269,60.039 77.644,60.039L96.367,60.039C98.742,60.039 100.732,60.374 102.338,61.046C103.944,61.717 105.152,62.656 105.962,63.864C106.773,65.073 107.178,66.472 107.178,68.062C107.178,69.27 106.925,70.346 106.419,71.291C105.913,72.236 105.216,73.018 104.328,73.638C103.44,74.257 102.413,74.691 101.246,74.939L101.246,75.249C102.526,75.311 103.711,75.656 104.801,76.286C105.89,76.916 106.765,77.791 107.426,78.912C108.087,80.032 108.417,81.356 108.417,82.884C108.417,84.588 107.984,86.109 107.116,87.446C106.249,88.783 104.994,89.836 103.352,90.605C101.711,91.375 99.718,91.759 97.374,91.759L83.081,91.759ZM90.404,85.579L95.546,85.579C97.209,85.579 98.435,85.265 99.225,84.635C100.015,84.005 100.41,83.127 100.41,82.002C100.41,81.186 100.219,80.481 99.837,79.887C99.455,79.294 98.912,78.834 98.21,78.509C97.508,78.184 96.667,78.021 95.686,78.021L90.404,78.021L90.404,85.579ZM90.404,73.08L95.051,73.08C95.887,73.08 96.63,72.941 97.281,72.662C97.931,72.383 98.44,71.98 98.807,71.454C99.173,70.927 99.356,70.292 99.356,69.549C99.356,68.485 98.98,67.649 98.226,67.04C97.472,66.43 96.455,66.126 95.175,66.126L90.404,66.126L90.404,73.08Z" style="fill:rgb(4,184,132);fill-rule:nonzero;"/>
            </g>
        </g>
    </g>
</svg>
